<?xml version="1.0" standalone="no"?><!DOCTYPE svg PUBLIC "-//W3C//DTD SVG 1.1//EN" "http://www.w3.org/Graphics/SVG/1.1/DTD/svg11.dtd"><svg t="1562216677347" class="icon" viewBox="0 0 1024 1024" version="1.1" xmlns="http://www.w3.org/2000/svg" p-id="7585" xmlns:xlink="http://www.w3.org/1999/xlink" width="200" height="200"><defs><style type="text/css"></style></defs><path d="M512 414.66799927L706.66400146 220.00399781c27.80914307-27.80914307 69.52285766-27.80914307 97.33200073 0s27.80914307 69.52285766 0 97.33200073L609.33200073 512l194.66400146 194.66400146c27.80914307 27.80914307 27.80914307 69.52285766 0 97.33200073s-69.52285766 27.80914307-97.33200073 0L512 609.33200073 317.33599854 803.99600219c-27.80914307 27.80914307-69.52285766 27.80914307-97.33200073 0-27.80914307-27.80914307-27.80914307-69.52285766 0-97.33200073L414.66799927 512 220.00399781 317.33599854C192.19485474 289.52685547 192.19485474 247.81314087 220.00399781 220.00399781c27.80914307-27.80914307 69.52285766-27.80914307 97.33200073 0L512 414.66799927z" fill="#999999" p-id="7586"></path></svg>