<?xml version="1.0" standalone="no"?><!DOCTYPE svg PUBLIC "-//W3C//DTD SVG 1.1//EN" "http://www.w3.org/Graphics/SVG/1.1/DTD/svg11.dtd"><svg t="1562231706875" class="icon" viewBox="0 0 1024 1024" version="1.1" xmlns="http://www.w3.org/2000/svg" p-id="1955" xmlns:xlink="http://www.w3.org/1999/xlink" width="200" height="200"><defs><style type="text/css"></style></defs><path d="M545.749 3.045c8.354 0.889 16.736 1.454 25.092 2.389 10.584 1.185 21.117 2.692 31.583 4.571a506.26 506.26 0 0 1 45.052 10.203 512.014 512.014 0 0 1 41.995 13.54c11.964 4.434 23.733 9.342 35.372 14.588 11.776 5.308 23.242 11.224 34.521 17.485 19.023 10.558 37.314 22.279 54.82 35.217 12.526 9.258 24.528 19.148 36.248 29.405 10.462 9.155 20.568 18.678 30.095 28.784 10.578 11.221 20.854 22.72 30.4 34.862 11.366 14.455 22.048 29.378 31.984 44.844 12.226 19.033 22.848 38.947 32.426 59.421 9.103 19.457 16.773 39.482 23.245 59.958 4.856 15.37 8.788 30.981 12.173 46.749 2.091 9.728 3.925 19.497 5.432 29.317 1.207 7.881 2.427 15.777 2.943 23.759 0.253 3.908 0.858 7.792 1.302 11.687 0.033 0.278 0.062 0.558 0.077 0.838 0.337 6.299 0.861 12.593 0.966 18.896 0.143 8.694 1.003 17.367 0.694 26.071-0.292 8.27-0.412 16.545-0.842 24.807-0.373 7.132-0.888 14.27-1.679 21.366-0.87 7.787-1.788 15.572-2.927 23.335-1.687 11.507-3.689 22.945-6.138 34.312-2.507 11.643-5.214 23.237-8.59 34.665-3.934 13.313-8.316 26.481-13.286 39.442a489.278 489.278 0 0 1-9.111 22.17c-3.502 7.954-7.118 15.871-11.025 23.632-7.634 15.165-15.992 29.928-25.016 44.318-8.801 14.037-18.474 27.46-28.423 40.682-4.045 5.373-8.438 10.487-12.771 15.636-11.756 13.961-24.176 27.311-37.397 39.891a559.68 559.68 0 0 1-26.672 23.805c-8.934 7.476-18.184 14.519-27.579 21.388-11.102 8.116-22.581 15.66-34.316 22.82-11.381 6.942-23.044 13.396-34.935 19.399-13.391 6.765-27.063 12.949-41.026 18.47a524.554 524.554 0 0 1-33.257 11.871 468.019 468.019 0 0 1-48.351 12.65c-6.306 1.296-12.601 2.679-18.943 3.771-6.618 1.141-13.282 2.026-19.939 2.939-5.823 0.8-11.654 1.56-17.498 2.194-3.898 0.426-7.82 0.669-11.729 0.957-10.907 0.808-21.837 1.29-32.783 1.169-1.396-0.016-2.795 0.154-4.191 0.247-0.698 0.047-1.416 0.254-2.088 0.148-5.164-0.805-10.369-0.462-15.546-0.451-7.588 0.016-15.139-0.619-22.679-1.16-10.607-0.761-21.205-1.909-31.738-3.384a495.876 495.876 0 0 1-39.246-7.106c-18.751-4.184-37.282-9.107-55.445-15.37a515.21 515.21 0 0 1-49.488-20.012c-16.425-7.646-32.377-16.148-47.906-25.446-15.17-9.084-29.701-19.121-43.873-29.696-9.897-7.387-19.464-15.172-28.784-23.257-5.719-4.961-11.157-10.246-16.713-15.395-8.34-7.728-16.114-16.02-23.909-24.281-4.231-4.484-8.269-9.164-12.205-13.912-6.263-7.553-12.534-15.097-18.452-22.936a532.697 532.697 0 0 1-21.479-30.657c-8.487-13.062-16.236-26.547-23.592-40.283-8.292-15.48-15.417-31.483-21.934-47.759-6.516-16.271-12.091-32.869-16.922-49.731-4.133-14.427-7.473-29.028-10.356-43.735-1.534-7.826-2.605-15.745-3.795-23.635-0.835-5.537-1.562-11.092-2.254-16.647-0.397-3.196-0.592-6.424-0.844-9.627-0.505-6.421-1.385-12.834-1.14-19.304-1.252-3.006 0.048-6.445-1.593-9.385v-36.209c1.513-3.174 0.584-6.559 0.847-9.839 0.417-20.659 3.229-41.063 6.823-61.359 7.575-42.781 20.6-83.911 38.799-123.318 18.198-39.408 41.116-75.933 68.666-109.542 14.7-17.934 30.444-34.914 47.451-50.602 30.517-28.151 63.743-52.693 100.209-72.741 27.615-15.18 56.255-28.035 86.163-37.905 33.383-11.017 67.52-18.807 102.525-22.652 8.789-0.966 17.579-1.397 26.397-1.686 2.069 0 4.134-0.002 6.199-0.001h4.861c1.776-0.222 3.629 0.482 5.35-0.434h31.998c1.737 0.881 3.598 0.227 5.391 0.435 1.908 0 3.814-0.002 5.724 0 2.192 0.184 4.423-0.401 6.582 0.354z" fill="#F3BC65" p-id="1956"></path><path d="M1.764 528.545c1.133 0.53 1.679 1.435 1.669 2.672-0.017 2.237-0.049 4.475-0.076 6.713-0.925-0.646-0.549-2.075-1.593-2.648v-6.737z" fill="#F6CD8B" p-id="1957"></path><path d="M1.764 486.441c0.756-0.503 0.828-1.29 0.856-2.089 0.029-0.797 0.063-1.587 0.755-2.149 0.014 2.044 0.038 4.088 0.038 6.132 0 1.554-0.358 2.973-1.65 4.001l0.001-5.895z" fill="#FAE1BB" p-id="1958"></path><path d="M479.198 3.039c0.01-0.261 0.016-0.522 0.015-0.783h6.736c0.284 0.187 0.37 0.355 0.259 0.51-0.105 0.145-0.212 0.218-0.318 0.218l-6.692 0.055z" fill="#FDF2E2" p-id="1959"></path><path d="M545.749 3.045l-6.696-0.042c-0.306-0.145-0.416-0.304-0.33-0.477 0.089-0.18 0.182-0.27 0.277-0.27h6.736c0 0.263 0.004 0.526 0.013 0.789z" fill="#FDF4E5" p-id="1960"></path><path d="M539 2.256c-0.002 0.25 0.016 0.5 0.053 0.748l-5.888 0.034c-0.309-0.151-0.42-0.317-0.336-0.499 0.089-0.188 0.18-0.283 0.275-0.283H539z" fill="#FADFB5" p-id="1961"></path><path d="M485.89 2.983c0.032-0.241 0.053-0.484 0.06-0.728h5.053c0.279 0.194 0.367 0.376 0.26 0.548-0.103 0.167-0.204 0.25-0.306 0.25-1.689-0.022-3.379-0.046-5.067-0.07z" fill="#F9DFB5" p-id="1962"></path><path d="M490.956 3.054a6.66 6.66 0 0 0 0.046-0.798h5.053c-0.448 0.601-1.072 0.828-1.793 0.826-1.103-0.002-2.203-0.018-3.306-0.028z" fill="#F6CB87" p-id="1963"></path><path d="M533.105 2.256c0.008 0.261 0.027 0.522 0.061 0.782-1.104 0.014-2.207 0.034-3.313 0.041-0.723 0.004-1.349-0.221-1.8-0.822l5.052-0.001z" fill="#F5CA88" p-id="1964"></path><path d="M512.397 54.467c6.316-0.001 12.631-0.021 18.946 0.009 2.648 0.012 5.266-0.023 7.922 0.621 2.128 0.516 4.465 0.171 6.708 0.21 1.814 0.032 3.651-0.17 5.392 0.605 0.37 0.165 0.834 0.235 1.236 0.19 4.231-0.462 8.319 1.025 12.524 0.902 2.11-0.062 4.132 0.646 6.189 0.953 4.814 0.718 9.687 0.992 14.462 2.088 4.063 0.933 8.245 1.338 12.362 2.052 3.021 0.524 6.047 1.058 9.024 1.781 11.255 2.732 22.584 5.184 33.656 8.639 3.865 1.206 7.842 2.069 11.664 3.39 8.194 2.833 16.343 5.804 24.469 8.83 5.107 1.902 10.165 3.951 15.201 6.037 3.491 1.445 6.925 3.03 10.353 4.619 4.939 2.291 9.913 4.519 14.757 7 5.479 2.806 10.836 5.852 16.235 8.812 2.945 1.614 5.916 3.189 8.796 4.914a704.273 704.273 0 0 1 14.284 8.803 716.91 716.91 0 0 1 14.086 9.119c7.211 4.798 14.278 9.807 21.02 15.249 4.668 3.769 9.455 7.388 14.002 11.318 4.227 3.654 8.387 7.385 12.638 11.001 10.065 8.56 18.81 18.452 28.32 27.566 3.029 4.394 7.454 7.577 10.439 12.016 0.385 0.574 0.94 1.037 1.438 1.532 3.081 3.061 5.546 6.651 8.441 9.853 3.011 3.33 5.461 7.08 8.428 10.428 1.2 1.356 2.356 2.78 3.338 4.3 2.127 3.294 4.59 6.335 6.877 9.506a319.1 319.1 0 0 1 9.675 14.208c3.779 5.879 7.405 11.859 11.033 17.834 6.84 11.264 13.015 22.896 18.644 34.804 3.227 6.826 6.296 13.729 9.266 20.679 2.695 6.308 5.082 12.729 7.672 19.073 0.634 1.551 1.072 3.182 1.607 4.773 2.36 7.022 4.93 13.982 7.037 21.08 2.977 10.033 5.794 20.108 8.012 30.36 1.563 7.219 2.905 14.483 4.543 21.687 0.615 2.706 0.854 5.505 1.135 8.275 0.197 1.948 0.564 3.92 1.029 5.748 0.803 3.152 0.182 6.465 1.427 9.503-0.294 3.664 1.259 7.161 0.959 10.837-0.077 0.952 0.063 1.98 0.357 2.892 0.398 1.237 0.433 2.473 0.452 3.735 0.036 2.233-0.104 4.452 0.643 6.659 0.389 1.144 0.146 2.5 0.195 3.761 0.161 4.042-0.461 8.126 0.772 12.114 0.238 0.771 0.067 1.673 0.067 2.515 0.003 9.542 0.004 19.086-0.002 28.629-0.001 1.537 0.015 3.055-0.475 4.574-0.335 1.037-0.313 2.207-0.342 3.319-0.05 1.964 0.07 3.934-0.035 5.893-0.283 5.285-0.611 10.569-1.526 15.795-0.049 0.276-0.107 0.558-0.1 0.835 0.128 5.058-1.096 9.972-1.568 14.95-0.631 6.676-1.68 13.284-2.863 19.844-1.135 6.292-2.268 12.605-3.727 18.858a1213.915 1213.915 0 0 1-4.954 20.334c-2.63 10.442-5.866 20.711-9.442 30.872-3.484 9.896-7.113 19.729-11.307 29.356-3.077 7.063-6.447 13.988-9.582 21.014-1.881 4.213-4.572 7.995-6.048 12.424-0.827 2.477-2.469 4.69-3.795 6.993-3.561 6.183-7.035 12.417-10.759 18.497-3.505 5.724-7.378 11.22-10.923 16.919-4.803 7.723-10.234 14.997-15.729 22.214-2.789 3.662-5.384 7.487-8.395 10.966-2.012 2.324-4.1 4.577-6.021 6.986-2.698 3.38-5.54 6.644-8.323 9.956a14.72 14.72 0 0 1-0.853 0.931c-8.043 8.008-15.353 16.722-23.625 24.516-2.142 2.018-4.677 3.532-6.68 5.736-1.87 2.061-3.719 4.212-6.243 5.584-0.477 0.258-0.848 0.73-1.236 1.135-3.502 3.635-7.652 6.528-11.376 9.888-4.683 4.226-9.929 7.708-14.663 11.847-2.307 2.018-4.809 3.836-7.34 5.57-8.648 5.931-17.226 11.984-26.074 17.604a392.377 392.377 0 0 1-20.563 12.209c-10.931 6.04-22.165 11.469-33.379 16.922-6.907 3.358-14.087 6.191-21.261 8.957-9.133 3.52-18.318 6.927-27.601 10.025-12.06 4.022-24.336 7.351-36.703 10.284-8.132 1.929-16.318 3.74-24.573 5.003-4.667 0.715-9.35 1.508-14.049 2.102-2.868 0.361-5.795 0.683-8.672 1.267-2.697 0.548-5.518 0.755-8.286 1.042-2.906 0.301-5.891-0.167-8.729 0.878-6.307-0.284-12.516 1.391-18.843 0.908-2.077-0.16-4.166-0.116-6.235 0.589-1.146 0.39-2.5 0.203-3.76 0.206-6.877 0.014-13.754 0.024-20.629-0.003-2.65-0.01-5.263-0.031-7.922-0.617-2.416-0.532-5.027-0.164-7.55-0.215-2.512-0.051-5.024 0.193-7.498-0.663-1.013-0.351-2.223-0.143-3.344-0.171-2.231-0.058-4.494 0.232-6.644-0.689-0.369-0.159-0.838-0.173-1.247-0.129-3.952 0.441-7.836-0.449-11.66-1.033-3.161-0.481-6.386-0.39-9.526-1.238-2.257-0.609-4.677-0.619-7.021-1.035-4.386-0.774-8.765-1.62-13.156-2.325-10.491-1.689-20.748-4.334-31.007-6.994-4.999-1.298-9.938-2.83-14.926-4.172-6.221-1.672-12.269-3.871-18.388-5.858-7.589-2.466-14.974-5.467-22.385-8.399-7.29-2.884-14.406-6.158-21.547-9.393-4.47-2.024-9.006-3.94-13.245-6.374-7.649-4.392-15.62-8.162-23.238-12.637a501.75 501.75 0 0 1-29.749-18.886c-6.905-4.738-13.6-9.788-20.328-14.78-5.046-3.745-9.792-7.864-14.578-11.937-5.22-4.44-10.193-9.157-15.378-13.613-7.147-6.142-13.479-13.068-20.228-19.589-5.536-5.348-10.538-11.192-15.502-17.071-1.801-2.132-3.706-4.173-5.503-6.319-4.214-5.032-8.201-10.236-12.279-15.373-5.303-6.68-10.161-13.68-15.071-20.637-3.706-5.249-7.051-10.759-10.443-16.224-2.949-4.751-5.77-9.585-8.592-14.415-2.117-3.622-4.271-7.23-6.19-10.958-3.787-7.358-7.59-14.717-11.067-22.223-2.644-5.705-5.479-11.335-7.6-17.283-1.173-3.288-2.735-6.437-4.055-9.674-3.647-8.947-6.578-18.147-9.683-27.288-3.734-10.994-6.559-22.241-9.429-33.471-1.656-6.479-3.203-13.017-4.216-19.617-0.655-4.264-1.755-8.444-2.079-12.792-0.329-4.419-1.418-8.782-2.207-13.165-0.419-2.334 0.236-4.802-0.895-7.043 0.243-3.938-1.128-7.738-0.989-11.675a21.875 21.875 0 0 0-0.571-5.818c-0.468-2.005-0.193-4.183-0.256-6.284-0.063-2.09 0.157-4.179-0.59-6.243-0.365-1.009-0.235-2.217-0.235-3.334-0.013-13.613-0.009-27.226-0.006-40.838 0-0.842-0.167-1.748 0.082-2.514 1.117-3.429 0.651-6.947 0.753-10.433 0.049-1.675-0.148-3.371 0.567-4.978 0.166-0.372 0.266-0.83 0.222-1.229-0.441-3.955 0.918-7.753 0.966-11.682 0.034-2.766 0.666-5.523 0.955-8.299 0.563-5.392 1.469-10.753 2.392-16.1 0.899-5.214 2.082-10.379 2.991-15.591 1.56-8.95 4.001-17.688 6.224-26.478 1.164-4.601 2.485-9.165 3.842-13.713 1.439-4.823 2.893-9.647 4.539-14.402 3.383-9.779 6.928-19.503 10.896-29.063 2.36-5.687 4.9-11.296 7.501-16.881 1.654-3.552 3.227-7.143 4.973-10.655 3.487-7.011 7.277-13.854 11.103-20.685 2.256-4.029 4.464-8.081 6.901-12.006 1.918-3.089 3.728-6.246 5.697-9.301 2.5-3.879 5.022-7.743 7.516-11.626 3.243-5.049 6.841-9.876 10.397-14.717 3.388-4.61 6.761-9.248 10.433-13.626 3.499-4.172 6.859-8.46 10.441-12.571 2.739-3.145 5.998-5.891 8.176-9.53 0.211-0.354 0.531-0.657 0.842-0.937 5.332-4.785 9.652-10.524 14.711-15.566 5.456-5.438 11.222-10.557 16.859-15.792 4.887-4.539 9.991-8.911 15.195-13.146 5.192-4.227 10.404-8.447 15.587-12.692 3.343-2.737 7.038-5.04 10.505-7.628 7.741-5.78 16.068-10.679 24.103-16.014 5.352-3.553 11.052-6.582 16.615-9.815 8.846-5.14 17.892-9.908 27.099-14.36 4.657-2.251 9.523-4.071 14.168-6.347 7.052-3.456 14.389-6.219 21.703-9.003 9.013-3.43 18.061-6.786 27.378-9.375a535.11 535.11 0 0 0 14.472-4.257c5.218-1.609 10.54-2.712 15.828-3.987 4.474-1.079 8.926-2.283 13.441-3.153 5.604-1.08 11.266-1.854 16.897-2.8 2.47-0.416 4.913-1.002 7.387-1.381 2.891-0.442 5.828-0.604 8.698-1.138 3.979-0.74 8.079-0.44 12.011-1.517 0.53-0.146 1.114-0.116 1.673-0.128 2.374-0.051 4.704-0.133 7.075-0.675 2.139-0.49 4.467-0.142 6.712-0.183 2.091-0.038 4.168 0.094 6.238-0.618 1.144-0.393 2.5-0.207 3.759-0.208 7.024-0.024 14.04-0.016 21.057-0.016z" fill="#FAD46B" p-id="1965"></path><path d="M512.406 116.779c5.192 0 10.385-0.023 15.577 0.009 2.648 0.017 5.298-0.201 7.918 0.662 1.147 0.378 2.502 0.136 3.765 0.164 2.371 0.054 4.776-0.249 7.061 0.709 0.249 0.104 0.559 0.128 0.83 0.097 4.231-0.476 8.317 0.979 12.523 0.912 2.232-0.035 4.426 0.603 6.609 0.948 5.771 0.91 11.558 1.752 17.305 2.845 6.027 1.146 12.021 2.413 18.006 3.74 15.717 3.485 31.088 8.171 46.235 13.577 7.108 2.538 14.059 5.502 20.989 8.518 7.581 3.298 15.076 6.752 22.462 10.465 7.258 3.65 14.265 7.733 21.286 11.813 6.782 3.941 13.358 8.17 19.887 12.5 7.107 4.714 13.858 9.911 20.689 14.998a280.741 280.741 0 0 1 11.209 8.768c3.015 2.491 5.722 5.363 8.803 7.763 4.642 3.619 8.611 7.961 13.11 11.743 4.044 3.401 7.941 7.098 11.1 11.44 0.736 1.013 1.65 1.909 2.55 2.789 5.005 4.896 9.603 10.152 13.985 15.61 2.01 2.503 4.286 4.792 6.315 7.28 2.118 2.595 4.058 5.332 6.121 7.973 7.236 9.266 13.588 19.143 20.021 28.963a236.309 236.309 0 0 1 10.111 16.92 683.235 683.235 0 0 0 7.983 14.291c1.187 2.067 2.011 4.298 3.031 6.432 3.745 7.823 7.261 15.758 10.709 23.717 1.777 4.102 3.268 8.329 4.813 12.527 1.402 3.806 2.633 7.671 4.077 11.467 1.588 4.174 2.818 8.493 4.021 12.8 1.993 7.125 4.021 14.25 5.698 21.452 1.83 7.865 3.665 15.739 4.787 23.758 0.637 4.545 1.66 9.035 2.311 13.579 0.494 3.446 0.382 6.995 1.069 10.391 0.893 4.403 0.395 8.905 1.423 13.297 0.499 2.135 0.141 4.469 0.188 6.712 0.054 2.51-0.205 5.029 0.673 7.494 0.314 0.882 0.154 1.945 0.155 2.925 0.009 8.841 0.012 17.682-0.003 26.523-0.001 1.118 0.133 2.324-0.227 3.335-0.686 1.927-0.537 3.868-0.604 5.821-0.11 3.204 0.377 6.443-0.716 9.594-0.264 0.759-0.104 1.669-0.12 2.51a57.876 57.876 0 0 1-0.616 7.495c-0.447 3.011-0.59 6.094-1.055 9.131-0.697 4.542-1.241 9.106-1.959 13.645a351.055 351.055 0 0 1-2.321 13.157 240.89 240.89 0 0 1-2.642 11.844c-1.9 7.582-3.625 15.226-5.943 22.681-2.617 8.413-5.255 16.835-8.503 25.041-1.493 3.771-2.894 7.577-4.417 11.334-1.471 3.628-3.063 7.206-4.571 10.817-3.297 7.901-7.394 15.415-11.122 23.106-3.607 7.444-7.982 14.452-12.201 21.548a311.299 311.299 0 0 1-8.977 14.17c-4.12 6.152-8.183 12.366-12.7 18.221-2.72 3.526-5.174 7.295-8.377 10.463-1.48 1.465-2.731 3.176-3.989 4.848-3.113 4.139-6.717 7.854-10.055 11.791-7.73 9.115-16.665 17.024-24.937 25.592-1.835 1.9-4.012 3.468-5.998 5.227-1.985 1.759-3.892 3.598-5.909 5.329-3.292 2.825-6.618 5.579-10.092 8.172-1.901 1.418-3.629 3.079-5.579 4.422a23.993 23.993 0 0 0-3.23 2.658c-0.4 0.394-0.75 0.9-1.231 1.139-2.529 1.263-4.56 3.205-6.825 4.827-4.658 3.337-9.384 6.587-14.205 9.683a610.02 610.02 0 0 1-17.853 11c-9.763 5.801-19.824 11.064-30.113 15.851-8.112 3.772-16.387 7.215-24.678 10.582-7.125 2.894-14.38 5.464-21.716 7.8-10.519 3.351-21.128 6.381-31.865 8.924-6.778 1.606-13.594 3.125-20.464 4.234-4.391 0.708-8.81 1.396-13.205 2.081-3.579 0.561-7.201 0.756-10.779 1.269-3.827 0.548-7.7 1.502-11.652 1.112-0.554-0.055-1.166-0.113-1.675 0.058-3.556 1.198-7.226 0.65-10.849 0.771-2.229 0.074-4.458-0.145-6.657 0.64-1.009 0.359-2.222 0.189-3.341 0.191-6.877 0.013-13.752 0.027-20.629-0.003-2.788-0.013-5.541-0.026-8.342-0.62-2.557-0.544-5.307-0.165-7.971-0.213-1.953-0.034-3.904 0.131-5.82-0.597-0.875-0.331-1.937-0.207-2.916-0.232-2.232-0.059-4.492 0.209-6.643-0.702-0.368-0.156-0.829-0.127-1.249-0.13-4.48-0.042-8.843-1.115-13.266-1.532-7.793-0.733-15.384-2.582-23.098-3.736-5.086-0.761-10.059-2.288-15.076-3.499-13.327-3.215-26.438-7.183-39.36-11.735-6.986-2.461-13.846-5.277-20.708-8.084-10.917-4.468-21.356-9.896-31.854-15.208-7.614-3.853-14.997-8.146-22.191-12.746-4.476-2.862-8.962-5.716-13.341-8.725-6.447-4.427-12.976-8.766-19.144-13.561-5.282-4.107-10.43-8.413-15.597-12.678-12.79-10.559-23.996-22.729-35.809-34.28-2.596-4.021-6.273-7.119-9.325-10.758-4.219-5.029-8.057-10.365-12.439-15.255-0.929-1.036-1.706-2.21-2.523-3.34-2.777-3.851-5.491-7.745-8.322-11.556-3.506-4.717-6.729-9.615-9.772-14.643-3.259-5.382-6.722-10.633-9.818-16.122-2.207-3.91-4.201-7.916-6.283-11.884-1.561-2.974-3.358-5.83-4.798-8.86-2.462-5.178-4.59-10.519-7.112-15.667-2.715-5.542-4.917-11.288-7.147-17.021-3.549-9.125-6.763-18.364-9.488-27.783-2.136-7.381-4.246-14.762-5.93-22.261-1.344-5.982-2.717-11.959-3.938-17.967-0.941-4.636-1.973-9.288-2.409-13.985-0.501-5.416-2.022-10.707-1.888-16.188-1.469-3.732-0.396-7.771-1.457-11.606-0.579-2.095-0.172-4.46-0.212-6.703-0.032-1.815 0.09-3.622-0.567-5.404-0.326-0.884-0.256-1.935-0.257-2.911-0.015-11.366-0.012-22.733-0.007-34.1 0.001-0.84-0.141-1.754 0.13-2.508 0.982-2.732 0.626-5.544 0.703-8.332 0.058-2.092-0.218-4.209 0.656-6.229 0.211-0.488 0.175-1.106 0.169-1.664-0.053-5.047 0.836-9.983 1.605-14.947 0.767-4.952 1.094-9.972 1.889-14.919 0.53-3.296 1.119-6.604 1.803-9.864 1.833-8.733 4.001-17.396 6.107-26.071 2.475-10.201 5.734-20.169 9.17-30.077 2.75-7.929 5.803-15.738 9.102-23.463 4.627-10.834 9.749-21.428 15.212-31.848 3.568-6.806 7.402-13.487 11.593-19.947 3.197-4.927 6.258-9.946 9.578-14.789 5.529-8.063 11.192-16.026 17.386-23.612 4.062-4.975 8.107-9.953 12.275-14.841 2.366-2.777 5.067-5.244 7.31-8.083 5.328-6.747 11.632-12.55 17.843-18.39 3.949-3.713 7.782-7.623 12.193-10.869 2.579-1.898 4.922-4.131 7.277-6.315 1.542-1.43 3.177-2.72 4.812-4.036 12.316-9.915 25.207-19.021 38.536-27.504 6.014-3.828 12.189-7.397 18.408-10.901 7.217-4.065 14.662-7.651 22.065-11.326 9.655-4.792 19.65-8.806 29.728-12.63 8.381-3.181 16.931-5.84 25.429-8.664 3.44-1.144 6.961-2.063 10.478-2.958 6.354-1.616 12.708-3.244 19.108-4.664 5.299-1.175 10.659-2.084 16.001-3.06 4.517-0.824 9.022-1.814 13.579-2.273 3.191-0.321 6.306-1.271 9.557-1.106 0.961 0.049 1.989-0.05 2.893-0.355 1.376-0.464 2.757-0.44 4.156-0.458 2.096-0.026 4.183 0.103 6.234-0.656 0.877-0.325 1.94-0.157 2.921-0.183 2.79-0.076 5.587 0.201 8.335-0.702 1.021-0.335 2.226-0.135 3.348-0.136 5.894-0.013 11.789-0.009 17.683-0.01z" fill="#F3BC65" p-id="1966"></path><path d="M510.749 168.985c7.256 0 12.869-0.015 18.481 0.007 2.511 0.009 5.057-0.273 7.482 0.71 0.249 0.101 0.56 0.116 0.832 0.087 4.507-0.479 8.926 0.565 13.35 1.021 3.156 0.324 6.395 0.404 9.519 1.227 2.288 0.602 4.684 0.633 7.025 1.015 6.878 1.123 13.688 2.558 20.508 3.963 9.314 1.919 18.401 4.638 27.486 7.417 11.385 3.481 22.404 7.879 33.385 12.437 6.206 2.576 12.2 5.598 18.19 8.572 6.498 3.226 12.834 6.835 19.144 10.464 6.808 3.915 13.446 8.052 19.835 12.581 6.376 4.52 12.868 8.869 18.929 13.845 5.396 4.432 10.682 8.984 16.01 13.489 7.628 6.45 14.495 13.653 21.351 20.839 5.091 5.336 10.352 10.589 14.604 16.71 1.502 2.162 3.515 3.958 5.093 6.115 3.13 4.28 6.572 8.337 9.612 12.678 4.408 6.293 8.707 12.675 12.8 19.177 2.83 4.493 5.418 9.144 8.036 13.772 3.523 6.233 6.563 12.697 9.831 19.05 4.169 8.102 7.557 16.538 10.66 25.095 1.146 3.154 2.528 6.225 3.601 9.401 1.919 5.684 3.824 11.38 5.477 17.146a326.893 326.893 0 0 1 4.676 18.253c1.466 6.52 3.125 13.002 3.973 19.659 0.615 4.827 1.869 9.588 2.237 14.425 0.274 3.62 0.869 7.203 1.196 10.812 0.402 4.461 0.198 8.986 0.885 13.354 0.707 4.492 0.558 8.928 0.635 13.389 0.1 5.752 0.038 11.507 0.014 17.26-0.01 2.511 0.158 5.017-0.655 7.498-0.377 1.149-0.139 2.502-0.171 3.763-0.063 2.371 0.231 4.763-0.682 7.07-0.245 0.619-0.164 1.388-0.151 2.086 0.082 5.048-0.872 9.977-1.527 14.953-0.6 4.559-1.054 9.151-1.985 13.642-2.151 10.37-4.113 20.78-7.074 30.982-2.81 9.676-5.692 19.309-9.352 28.7-2.181 5.601-4.194 11.269-6.45 16.837-1.364 3.367-3.049 6.604-4.591 9.898-0.769 1.639-1.49 3.302-2.321 4.909-4.754 9.202-9.447 18.435-15.144 27.114-1.992 3.037-3.639 6.302-5.638 9.334-2.69 4.083-5.517 8.082-8.385 12.044a511.981 511.981 0 0 1-9.288 12.395c-1.789 2.32-3.744 4.513-5.616 6.771-2.404 2.899-4.787 5.814-7.205 8.702-0.719 0.858-1.498 1.669-2.29 2.463-8.229 8.242-16.408 16.537-24.737 24.677-2.885 2.821-6.148 5.256-9.244 7.861-2.028 1.709-4.112 3.376-6.074 5.137-4.077 3.66-8.744 6.489-13.036 9.836-3.413 2.661-6.946 5.176-10.528 7.606a220.15 220.15 0 0 1-10.616 6.75c-7.204 4.313-14.582 8.322-21.916 12.409-8.346 4.653-17.144 8.255-25.777 12.233-4.306 1.984-8.857 3.445-13.324 5.07-4.731 1.722-9.46 3.465-14.25 5.009-10.236 3.298-20.641 5.946-31.136 8.334-6.257 1.423-12.614 2.276-18.839 3.829-2.007 0.501-4.16 0.645-6.2 0.804-3.071 0.236-6.021 1.408-9.139 1.073-4.173 1.392-8.623 0.341-12.861 1.511-1.832 0.507-3.906 0.128-5.868 0.168-2.093 0.044-4.186-0.16-6.237 0.625-0.872 0.335-1.939 0.199-2.919 0.2-7.858 0.013-15.717 0.009-23.575 0.006-1.4 0-2.795 0.052-4.148-0.482-1.478-0.584-3.053-0.287-4.587-0.349-3.344-0.13-6.74 0.43-10-0.781-3.67 0.397-7.189-0.86-10.833-0.98-3.319-0.108-6.627-0.775-9.927-1.286a379.959 379.959 0 0 1-11.943-2.021 471.8 471.8 0 0 1-13.113-2.661c-12.714-2.764-25.158-6.49-37.415-10.82-6.589-2.328-13.113-4.855-19.59-7.479-9.483-3.842-18.729-8.23-27.75-13.046-6.287-3.354-12.41-7.034-18.498-10.744-5.372-3.273-10.698-6.645-15.856-10.242-5.837-4.071-11.491-8.41-17.174-12.699-3.566-2.689-6.888-5.694-10.357-8.497-3.177-2.568-5.826-5.687-8.994-8.185-5.758-4.54-10.581-10.01-15.782-15.102-3.896-3.815-7.503-7.945-11.068-12.05a360.96 360.96 0 0 1-22.451-28.666c-5.656-8.018-10.611-16.432-15.704-24.786-5.849-9.596-10.72-19.692-15.592-29.778-3.28-6.791-6.254-13.75-8.713-20.903-2.409-7.013-4.986-13.972-7.228-21.036a259.382 259.382 0 0 1-7.21-27.964c-1.301-6.558-2.699-13.097-3.906-19.671-0.552-3.009-0.541-6.124-1.153-9.115-0.758-3.703-0.406-7.521-1.406-11.186-0.252-0.926-0.191-1.946-0.215-2.924-0.072-2.931 0.216-5.873-0.74-8.752-0.295-0.89-0.105-1.948-0.105-2.93-0.004-12.349-0.003-24.697-0.001-37.046 0-1.541-0.09-3.088 0.559-4.558 0.164-0.374 0.266-0.829 0.225-1.23-0.436-4.368 0.696-8.622 0.947-12.941 0.192-3.325 0.669-6.656 1.315-9.925 0.46-2.331-0.086-4.808 1.084-7.015 0.617-6.818 2.382-13.438 3.547-20.161 0.594-3.425 1.568-6.792 2.493-10.151 1.299-4.712 2.702-9.396 4.081-14.086 0.946-3.218 1.771-6.482 2.919-9.627 2.732-7.485 5.337-15.01 8.467-22.361 3.787-8.894 7.558-17.788 12.087-26.322 3.735-7.041 7.853-13.877 11.74-20.839 3.004-5.381 6.349-10.551 9.875-15.588 4.003-5.716 8.184-11.315 12.463-16.828 4.106-5.291 8.407-10.426 12.788-15.506 8.72-10.11 18.687-18.971 27.886-28.592 3.655-2.373 6.586-5.618 9.876-8.417 4.898-4.167 10.048-8.009 15.047-12.033 5.537-4.458 11.535-8.37 17.503-12.261 5.383-3.51 10.858-6.885 16.468-10.053 7.443-4.202 14.865-8.437 22.623-12.023 7.364-3.405 14.767-6.746 22.28-9.801 7.381-3.002 14.88-5.731 22.518-8.043 11.623-3.52 23.293-6.811 35.24-9.137 5.604-1.091 11.225-2.214 16.854-3.004 5.364-0.752 10.695-2.095 16.177-1.927 3.408-1.094 6.998-0.344 10.404-0.912 8.511-1.419 17.06-0.308 23.937-0.747z" fill="#FAD46B" p-id="1967"></path><path d="M480.911 727.591c0-6.487 0.03-10.978-0.011-15.468-0.021-2.127-0.213-2.281-2.423-2.572-11.662-1.54-23.241-3.469-34.636-6.485-11.411-3.021-22.559-6.758-33.187-11.89-12.728-6.145-24.28-13.966-33.836-24.54-6.424-7.108-11.033-15.193-13.339-24.494-2.706-10.914-0.625-21.183 5.004-30.711 4.994-8.453 11.679-15.383 20.109-20.529 1.07-0.653 2.196-1.25 3.36-1.712 2.358-0.938 2.401-0.861 4.202 1.21a120.313 120.313 0 0 0 15.454 14.85 157.305 157.305 0 0 0 31.286 19.607c13.614 6.452 27.84 11.104 42.651 13.827 5.492 1.01 11.057 1.647 16.659 2.061 5.047 0.372 10.08 0.711 15.117 0.468 12.066-0.581 23.994-2.031 35.355-6.509 7.667-3.021 14.6-7.156 20.177-13.318 6.248-6.899 9.809-14.934 10.057-24.323 0.033-1.262 0.018-2.525 0.028-3.788 0.114-12.195-5.396-21.48-14.866-28.709-6.074-4.639-12.879-7.911-19.954-10.697-10.063-3.961-20.462-6.806-30.948-9.348-12.925-3.131-25.913-6.002-38.791-9.309-17.824-4.575-35.175-10.478-51.444-19.275-11.83-6.398-22.486-14.297-31.411-24.368-10.33-11.656-17.28-25.122-20.737-40.344-1.428-6.292-2.522-12.629-2.643-19.105-0.05-2.659-0.653-5.27-0.59-7.957 0.451-19.067 4.292-37.255 13.825-53.986 5.305-9.311 11.647-17.851 19.479-25.192 12.642-11.85 27.241-20.599 43.346-26.888 9.413-3.677 19.04-6.64 28.969-8.579 1.1-0.215 2.182-0.517 3.267-0.799 0.775-0.201 1.147-0.761 1.176-1.529 0.042-1.121 0.049-2.243 0.053-3.366 0.032-8.139-0.084-16.281 0.135-24.416 0.155-5.75 1.1-11.41 3.116-16.864 3.977-10.756 11.824-16.634 22.92-18.662 5.576-1.019 11.187-0.98 16.773-0.666 5.749 0.324 11.414 1.356 16.536 4.289 3.986 2.282 7.139 5.415 9.424 9.381 3.281 5.695 4.626 11.938 5.347 18.417 0.983 8.819 0.498 17.652 0.646 26.479 0.021 1.262 0.009 2.526 0.1 3.783 0.058 0.769 0.581 1.265 1.351 1.379 2.215 0.328 4.433 0.637 6.651 0.928 16.744 2.202 32.981 6.317 48.626 12.724 9.922 4.063 19.197 9.268 27.563 15.97 8.076 6.47 14.866 14.038 19.076 23.68 4.998 11.449 4.984 22.769-0.313 34.147-5.008 10.758-12.808 18.982-22.516 25.545-1.388 0.937-2.902 1.707-4.421 2.418-2.036 0.953-2.376 0.845-3.978-0.911-1.228-1.345-2.323-2.817-3.61-4.1-9.19-9.15-19.388-16.962-30.709-23.333-9.819-5.526-20.108-9.911-30.857-13.234-7.1-2.196-14.357-3.638-21.706-4.797-5.291-0.834-10.645-0.407-15.902-1.337-0.546-0.097-1.122-0.076-1.681-0.05-12.487 0.587-24.853 1.784-36.635 6.473-7.141 2.842-13.588 6.778-18.975 12.194-5.542 5.574-9.16 12.293-10.601 20.155-1.079 5.889-1.111 11.711 0.292 17.511 1.967 8.141 6.79 14.373 13.385 19.3 6.577 4.912 13.979 8.261 21.669 10.998 12.164 4.328 24.711 7.244 37.269 10.14 12.14 2.799 24.308 5.457 36.34 8.728 13.148 3.575 25.934 8.109 38.4 13.561 5.274 2.306 10.337 5.056 15.27 8.012 8.684 5.205 16.793 11.167 23.987 18.351 12.526 12.514 20.777 27.381 24.851 44.583 1.685 7.108 2.75 14.301 2.673 21.633-0.037 3.647 0.022 7.297-0.052 10.944-0.254 12.463-2.985 24.439-7.397 36.037-3.664 9.628-8.719 18.51-15.101 26.605-6.377 8.089-13.816 15.08-22.157 21.122-10.63 7.699-22.18 13.646-34.5 18.135-11.218 4.086-22.703 7.116-34.507 8.925-2.22 0.338-2.596 0.718-2.606 3.021-0.042 7.718-0.037 15.438-0.021 23.155 0.011 6.059-0.807 11.992-2.364 17.852-1.246 4.688-3.381 8.892-6.332 12.7-1.828 2.361-4.174 4.117-6.731 5.635-5.19 3.082-10.908 4.441-16.823 4.784-5.73 0.334-11.482 0.31-17.19-0.705-6.834-1.215-12.885-3.836-17.444-9.27-3.521-4.196-5.301-9.185-6.37-14.461-1.683-8.295-1.839-16.695-1.659-23.121z" fill="#FFFFFF" p-id="1968"></path></svg>