<?xml version="1.0" standalone="no"?><!DOCTYPE svg PUBLIC "-//W3C//DTD SVG 1.1//EN" "http://www.w3.org/Graphics/SVG/1.1/DTD/svg11.dtd"><svg t="1562210676720" class="icon" viewBox="0 0 1024 1024" version="1.1" xmlns="http://www.w3.org/2000/svg" p-id="6840" xmlns:xlink="http://www.w3.org/1999/xlink" width="200" height="200"><defs><style type="text/css"></style></defs><path d="M46.42833 692.4c-37.5 0-42.4-11.8-44.6-17.1-3.7-9-15.1-36.4 130.4-122.3 3.8-2.2 8.7-1 10.9 2.8 2.2 3.8 1 8.7-2.8 10.9-132 78-124.1 101.5-123.8 102.4 0.4 0.9 11.4 23 158.7-14.8 100.1-25.6 229.1-70.4 363.4-126 134.3-55.6 257.1-115.2 346-167.9 130.9-77.5 123.1-100.8 122.7-101.8-0.4-0.9-10.9-22-149.7 12.5-4.3 1-8.6-1.5-9.7-5.8s1.5-8.6 5.8-9.7c153.8-38.2 164.7-11.8 168.3-3.1 3.7 9 15 36.2-129.3 121.7-89.5 53-213.1 113-348 168.9-134.8 56-264.6 101-365.4 126.9-66.1 16.9-107.2 22.4-132.9 22.4z m570-36.5c-4.4 0-8.1-3.6-8.1-8s3.5-8 7.9-8h0.2c4.4 0 8 3.6 8 8s-3.6 8-8 8zM360.62833 352.1c-4.4 0-8.1-3.6-8.1-8s3.5-8 7.9-8h0.2c4.4 0 8 3.6 8 8s-3.6 8-8 8z" fill="#B2B2B2" p-id="6841"></path><path d="M728.32833 400.1c-4.4 0-8.1-3.6-8.1-8s3.5-8 7.9-8h0.2c4.4 0 8 3.6 8 8s-3.6 8-8 8z" fill="#B2B2B2" p-id="6842"></path><path d="M695.92833 783.8H328.12833c-4.4 0-8-3.6-8-8v-17.3C219.92833 693.1 160.32833 583.4 160.32833 464c0-194 157.8-351.8 351.8-351.8S863.82833 270.1 863.82833 464c0 119.4-59.7 229.1-159.9 294.5v17.3c0 4.4-3.6 8-8 8z m-359.8-16h351.7v-13.7c0-2.7 1.4-5.3 3.7-6.7 97.8-62.1 156.2-168.1 156.2-283.4 0-185.1-150.6-335.8-335.8-335.8-185.2 0-335.8 150.6-335.8 335.8 0 115.3 58.4 221.2 156.2 283.4 2.3 1.5 3.7 4 3.7 6.7l0.1 13.7z" fill="#B2B2B2" p-id="6843"></path><path d="M647.92833 991.7H376.12833c-2.1 0-4.2-0.8-5.7-2.3l-48-48c-1.5-1.5-2.3-3.5-2.3-5.7V775.8c0-4.4 3.6-8 8-8h367.7c4.4 0 8 3.6 8 8v159.9c0 2.1-0.8 4.2-2.3 5.7l-48 48c-1.4 1.4-3.5 2.3-5.6 2.3z m-268.5-16h265.2l43.3-43.3V783.8H336.12833v148.6l43.3 43.3z" fill="#B2B2B2" p-id="6844"></path><path d="M312.12833 847.8c-4.2 0-7.6-3.2-8-7.4-0.3-4.4 2.9-8.3 7.3-8.6l399.7-32c4.5-0.3 8.2 2.9 8.6 7.3 0.4 4.4-2.9 8.2-7.3 8.6l-399.7 32c-0.1 0-0.3 0.1-0.6 0.1z m0 47.9c-4.2 0-7.6-3.2-8-7.4-0.3-4.4 2.9-8.3 7.3-8.6l399.7-32c4.5-0.4 8.2 2.9 8.6 7.3 0.4 4.4-2.9 8.2-7.3 8.6l-399.7 32c-0.1 0.1-0.3 0.1-0.6 0.1z m0 48c-4.2 0-7.6-3.2-8-7.4-0.4-4.4 2.9-8.3 7.3-8.6l399.7-32c4.5-0.3 8.2 2.9 8.6 7.3 0.4 4.4-2.9 8.2-7.3 8.6l-399.7 32c-0.1 0.1-0.3 0.1-0.6 0.1z m199.9 79.9c-67.2 0-93.3-33.7-94.3-35.2-2.6-3.5-1.9-8.5 1.6-11.2 3.5-2.6 8.5-1.9 11.1 1.6 1 1.3 23 28.8 81.6 28.8 58.6 0 80.7-27.7 81.6-28.8 2.7-3.5 7.7-4.2 11.2-1.5 3.5 2.6 4.2 7.6 1.6 11.1-1.1 1.5-27.2 35.2-94.4 35.2z m0-895.3c-4.4 0-8-3.6-8-8V8.4c0-4.4 3.6-8 8-8s8 3.6 8 8v111.9c0 4.4-3.6 8-8 8z" fill="#B2B2B2" p-id="6845"></path><path d="M584.02833 32.3h-72c-4.4 0-8-3.6-8-8s3.6-8 8-8h72c4.4 0 8 3.6 8 8 0 4.5-3.6 8-8 8z m0 32h-72c-4.4 0-8-3.6-8-8s3.6-8 8-8h72c4.4 0 8 3.6 8 8s-3.6 8-8 8z" fill="#B2B2B2" p-id="6846"></path><path d="M584.02833 64.3c-4.4 0-8-3.6-8-8v-32c0-4.4 3.6-8 8-8s8 3.6 8 8v32c0 4.4-3.6 8-8 8z" fill="#B2B2B2" p-id="6847"></path><path d="M552.02833 96.3c-2.1 0-4.2-0.8-5.7-2.3-3.1-3.1-3.1-8.2 0-11.3l32-32c3.1-3.1 8.2-3.1 11.3 0s3.1 8.2 0 11.3l-32 32c-1.5 1.5-3.5 2.3-5.6 2.3z" fill="#B2B2B2" p-id="6848"></path><path d="M663.92833 96.3H552.02833c-4.4 0-8-3.6-8-8s3.6-8 8-8h111.9c4.4 0 8 3.6 8 8s-3.6 8-8 8z m0-32H584.02833c-4.4 0-8-3.6-8-8s3.6-8 8-8h79.9c4.4 0 8 3.6 8 8s-3.6 8-8 8z" fill="#B2B2B2" p-id="6849"></path><path d="M663.92833 96.3c-2.1 0-4.2-0.8-5.7-2.3l-16-16c-3.1-3.1-3.1-8.2 0-11.3l16-16c3.1-3.1 8.2-3.1 11.3 0s3.1 8.2 0 11.3l-10.3 10.3 10.3 10.3c3.1 3.1 3.1 8.2 0 11.3-1.4 1.6-3.5 2.4-5.6 2.4zM232.22833 472c-4.4 0-8-3.6-8-8 0-158.7 129.1-287.8 287.8-287.8 4.4 0 8 3.6 8 8s-3.6 8-8 8c-149.9 0-271.8 121.9-271.8 271.8 0 4.4-3.6 8-8 8zM512.02833 448c-44.1 0-79.9-32.3-79.9-71.9s35.9-71.9 79.9-71.9c44.1 0 79.9 32.3 79.9 71.9S556.12833 448 512.02833 448z m0-127.9c-35.3 0-64 25.1-64 56s28.7 56 64 56 64-25.1 64-56-28.7-56-64-56zM696.62833 302c-13.7 0-31.2-9-45.7-23.6-22.7-22.7-30.2-49.6-17.3-62.5 12.5-12.5 40.8-4.5 62.5 17.3 22.7 22.7 30.1 49.6 17.3 62.5-4.2 4.1-10 6.3-16.8 6.3z m-46.3-76.4c-1.7 0-4.1 0.3-5.4 1.6-4.5 4.5 0.1 22.7 17.3 39.9 13.1 13.1 26.7 18.9 34.4 18.9 1.7 0 4.1-0.3 5.4-1.6 4.5-4.5-0.1-22.7-17.3-39.9-13-13.1-26.6-18.9-34.4-18.9zM712.52833 624.3c-6.8 0-13-2.4-17.4-6.8-11-11-8.6-30.7 5.6-44.9 13.5-13.5 34.3-16.2 44.9-5.6 11 11 8.6 30.7-5.5 44.9-8 7.9-18 12.4-27.6 12.4z m15.7-48.2c-5.3 0-11.3 2.9-16.2 7.7-8.2 8.2-9.5 18.3-5.6 22.3 1.8 1.8 4.3 2.1 6.1 2.1 5.3 0 11.3-2.9 16.2-7.7 8.2-8.2 9.5-18.3 5.6-22.3-1.8-1.7-4.3-2.1-6.1-2.1zM320.12833 544c-17.6 0-32-14.3-32-32 0-17.6 14.3-32 32-32 17.6 0 32 14.3 32 32 0 17.6-14.3 32-32 32z m0-48c-8.8 0-16 7.2-16 16s7.2 16 16 16 16-7.2 16-16-7.1-16-16-16zM464.02833 703.9c-17.9 0-32-10.5-32-24 0-13.4 14-24 32-24 17.9 0 32 10.5 32 24 0 13.4-14 24-32 24z m0-32c-9.6 0-16 4.8-16 8 0 3.3 6.2 8 16 8s16-4.7 16-8c0-3.2-6.4-8-16-8z" fill="#B2B2B2" p-id="6850"></path></svg>