<?xml version="1.0" encoding="utf-8"?>
<!-- Generator: Adobe Illustrator 17.0.0, SVG Export Plug-In . SVG Version: 6.00 Build 0)  -->
<!DOCTYPE svg PUBLIC "-//W3C//DTD SVG 1.1//EN" "http://www.w3.org/Graphics/SVG/1.1/DTD/svg11.dtd">
<svg version="1.1" id="图层_1" xmlns="http://www.w3.org/2000/svg" xmlns:xlink="http://www.w3.org/1999/xlink" x="0px" y="0px"
	 width="500px" height="500px" viewBox="0 0 500 500" enable-background="new 0 0 500 500" xml:space="preserve">
<g>
	<g>
		<path d="M400.391,170.4c0,4.596-4.829,8.322-10.785,8.322H72.916c-5.956,0-10.785-3.726-10.785-8.322l0,0
			c0-4.596,4.829-8.322,10.785-8.322h316.69C395.563,162.077,400.391,165.803,400.391,170.4L400.391,170.4z"/>
		<path d="M157.369,161.8c0-56.172,45.054-101.709,100.631-101.709S358.631,105.627,358.631,161.8c0,2.557-0.096,5.091-0.279,7.6
			h16.328c0.146-2.423,0.229-4.863,0.229-7.322c0-65.476-52.516-118.554-117.297-118.554S140.314,96.602,140.314,162.077
			c0,2.46,0.083,4.9,0.229,7.322h17.106C157.465,166.89,157.369,164.356,157.369,161.8z"/>
		<path d="M257.693,346.092c-28.826,0-53.397-38.499-62.856-92.509h-20.445c14.577,65.16,46.532,110.381,83.608,110.381
			s69.031-45.221,83.608-110.381h-21.059C311.09,307.594,286.519,346.092,257.693,346.092z"/>
		<g>
			<path stroke="#000000" stroke-miterlimit="10" d="M167.008,245.284c1.93,9.041,9.068,14.791,13.573,12.774l0,0
				c4.504-2.018,5.309-9.131,3.667-15.729c-3.052-12.34-2.063-25.556,3.218-37.151c2.5-5.405,2.592-12.042-0.666-16.109l0,0
				c-3.258-4.067-10.038-2.553-13.768,4.973C164.871,210.662,164.54,227.353,167.008,245.284z"/>
		</g>
		<path d="M194.972,191.046v-13.049h-15.854v25.336h9.865v-3.33C188.982,195.758,191.512,192.182,194.972,191.046z"/>
		<path d="M195.378,257.333c0,4.602-3.731,8.333-8.333,8.333l0,0c-4.602,0-8.333-3.731-8.333-8.333V256
			c0-4.602,3.731-8.333,8.333-8.333l0,0c4.602,0,8.333,3.731,8.333,8.333V257.333z"/>
		<path stroke="#000000" stroke-miterlimit="10" d="M194.533,193.012c0,4.688-3.8,8.488-8.488,8.488l0,0
			c-4.688,0-8.488-3.8-8.488-8.488v-1.358c0-4.688,3.8-8.488,8.488-8.488l0,0c4.688,0,8.488,3.8,8.488,8.488V193.012z"/>
		<path d="M258.216,346.092c28.826,0,53.397-38.499,62.856-92.509h20.445c-14.577,65.16-46.532,110.381-83.608,110.381
			s-69.031-45.221-83.608-110.381h21.059C204.819,307.594,229.391,346.092,258.216,346.092z"/>
		<g>
			<path stroke="#000000" stroke-miterlimit="10" d="M348.901,245.284c-1.93,9.041-9.068,14.791-13.573,12.774l0,0
				c-4.504-2.018-5.309-9.131-3.667-15.729c3.052-12.34,2.063-25.556-3.218-37.151c-2.5-5.405-2.592-12.042,0.666-16.109l0,0
				c3.258-4.067,10.038-2.553,13.768,4.973C351.038,210.662,351.369,227.353,348.901,245.284z"/>
		</g>
		<path d="M320.937,191.046v-13.049h15.854v25.336h-9.865v-3.33C326.927,195.758,324.397,192.182,320.937,191.046z"/>
		<path d="M320.531,257.333c0,4.602,3.731,8.333,8.333,8.333l0,0c4.602,0,8.333-3.731,8.333-8.333V256
			c0-4.602-3.731-8.333-8.333-8.333l0,0c-4.602,0-8.333,3.731-8.333,8.333V257.333z"/>
		<path stroke="#000000" stroke-miterlimit="10" d="M321.377,193.012c0,4.688,3.8,8.488,8.488,8.488l0,0
			c4.688,0,8.488-3.8,8.488-8.488v-1.358c0-4.688-3.8-8.488-8.488-8.488l0,0c-4.688,0-8.488,3.8-8.488,8.488V193.012z"/>
	</g>
	<g>
		<path d="M194.612,353.877c-53.095,0-96.137,43.503-96.137,97.167c0,2.016,0.068,4.016,0.188,6.001h14.02
			c-0.15-2.057-0.229-4.134-0.229-6.229c0-45.931,36.754-83.183,82.158-83.357L194.612,353.877L194.612,353.877z"/>
		<circle stroke="#000000" stroke-miterlimit="10" cx="105.5" cy="458" r="6.667"/>
		<circle stroke="#000000" stroke-miterlimit="10" cx="194.612" cy="360.544" r="6.667"/>
		<path stroke="#000000" stroke-miterlimit="10" d="M202.263,454.877c0,5.407-3.425,9.79-7.651,9.79l0,0
			c-4.225,0-7.651-4.383-7.651-9.79v-43.42c0-5.407,3.425-9.79,7.651-9.79l0,0c4.225,0,7.651,4.383,7.651,9.79V454.877z"/>
		<g>
			<path d="M328.913,353.877c53.095,0,96.137,43.503,96.137,97.167c0,2.016-0.068,4.016-0.188,6.001h-14.02
				c0.15-2.057,0.229-4.134,0.229-6.229c0-45.931-36.754-83.183-82.158-83.357L328.913,353.877L328.913,353.877z"/>
			<circle stroke="#000000" stroke-miterlimit="10" cx="418.025" cy="458" r="6.667"/>
			<circle stroke="#000000" stroke-miterlimit="10" cx="328.913" cy="360.544" r="6.667"/>
			<path stroke="#000000" stroke-miterlimit="10" d="M321.263,454.877c0,5.407,3.425,9.79,7.651,9.79l0,0
				c4.225,0,7.651-4.383,7.651-9.79v-43.42c0-5.407-3.425-9.79-7.651-9.79l0,0c-4.225,0-7.651,4.383-7.651,9.79V454.877z"/>
		</g>
	</g>
</g>
</svg>
