<?xml version="1.0" standalone="no"?><!DOCTYPE svg PUBLIC "-//W3C//DTD SVG 1.1//EN" "http://www.w3.org/Graphics/SVG/1.1/DTD/svg11.dtd"><svg t="1562160874629" class="icon" viewBox="0 0 1024 1024" version="1.1" xmlns="http://www.w3.org/2000/svg" p-id="1123" xmlns:xlink="http://www.w3.org/1999/xlink" width="200" height="200"><defs><style type="text/css"></style></defs><path d="M873.885718 149.956563C777.200974 53.260911 648.63577 0 511.885913 0 375.124925 0 246.548814 53.260911 149.842254 149.956563c-199.630358 199.630358-199.630358 524.434699 0 724.065279C246.548814 970.739088 375.124925 1023.999999 511.885913 1023.999999c136.75008 0 265.315283-53.260911 362.000027-149.978156C970.614093 777.326191 1023.885913 648.739172 1023.885913 511.999999 1023.885913 375.239234 970.614093 246.652215 873.885718 149.956563zM858.146615 858.282517C765.6576 950.804256 642.690115 1001.739129 511.885913 1001.739129c-130.815109 0-253.80441-50.934873-346.304334-143.456612C73.081433 765.782594 22.135875 642.804424 22.135875 511.999999c0-130.826017 50.945558-253.80441 143.445704-346.304334S381.070581 22.26087 511.885913 22.26087c130.804424 0 253.782595 50.934873 346.260925 143.434796C950.668354 258.195589 1001.625043 381.173982 1001.625043 511.999999 1001.625043 642.804424 950.668354 765.782594 858.146615 858.282517zM745.157565 484.934789l-300.684688-179.325996c-4.902066-2.913057-10.456598-4.456626-16.076132-4.456626-17.41312 0-31.576153 14.152125-31.576153 31.54343l0 358.652215c0 17.369489 14.163033 31.500021 31.565245 31.500021 5.619534 0 11.184751-1.543569 16.097725-4.456626l300.663095-179.325996c9.61959-5.739075 15.358664-15.847736 15.358664-27.043395C760.516229 500.826156 754.777155 490.69568 745.157565 484.934789zM733.744417 519.934886l-300.663095 179.325996c-1.48903 0.891325-3.065322 1.32608-4.695708 1.32608-4.478219 0-9.304376-3.52167-9.304376-9.239151L419.081238 332.695596c0-5.739075 4.837064-9.28256 9.315283-9.28256 1.630386 0 3.206456 0.434755 4.673892 1.32608l300.674003 179.304403c4.06528 2.434894 4.510943 6.391318 4.500035 7.978296C738.244452 513.586977 737.809697 517.521808 733.744417 519.934886z" p-id="1124" fill="#ffffff"></path></svg>