<?xml version="1.0" standalone="no"?><!DOCTYPE svg PUBLIC "-//W3C//DTD SVG 1.1//EN" "http://www.w3.org/Graphics/SVG/1.1/DTD/svg11.dtd"><svg t="1562209638722" class="icon" viewBox="0 0 1024 1024" version="1.1" xmlns="http://www.w3.org/2000/svg" p-id="4404" xmlns:xlink="http://www.w3.org/1999/xlink" width="200" height="200"><defs><style type="text/css"></style></defs><path d="M512 512m-512 0a512 512 0 1 0 1024 0 512 512 0 1 0-1024 0Z" fill="#B2C2D1" p-id="4405"></path><path d="M155.062857 877.714286s2.925714-38.034286 105.325714-64.365715c90.697143-23.405714 78.994286-20.48 111.177143-35.108571 35.108571-17.554286 46.811429-52.662857 35.108572-102.4-2.925714-14.628571-5.851429-23.405714-5.851429-23.405714s-35.108571-17.554286-43.885714-93.622857c-5.851429 0-8.777143-2.925714-8.777143-2.925715s-11.702857-2.925714-14.628571-17.554285c-2.925714-8.777143-8.777143-38.034286-5.851429-55.588572 0-8.777143 5.851429-17.554286 17.554286-17.554286 0 0-23.405714-70.217143-5.851429-134.582857 26.331429-90.697143 90.697143-114.102857 166.765714-117.028571 64.365714-2.925714 134.582857 17.554286 166.765715 105.325714 20.48 70.217143 0 152.137143 0 152.137143s26.331429-2.925714 26.331428 26.331429-8.777143 61.44-8.777143 61.44-5.851429 20.48-29.257142 14.628571c0 0-5.851429 43.885714-17.554286 61.44-14.628571 17.554286-23.405714 29.257143-29.257143 40.96-5.851429 20.48-11.702857 58.514286 14.628571 87.771429 17.554286 17.554286 26.331429 29.257143 99.474286 46.811428 23.405714 5.851429 78.994286 8.777143 111.177143 38.034286 26.331429 26.331429 23.405714 40.96 23.405714 40.96S728.502857 1024 503.222857 1024c-231.131429-5.851429-348.16-146.285714-348.16-146.285714z" fill="#F1F7FC" p-id="4406"></path></svg>