<?xml version="1.0" standalone="no"?><!DOCTYPE svg PUBLIC "-//W3C//DTD SVG 1.1//EN" "http://www.w3.org/Graphics/SVG/1.1/DTD/svg11.dtd"><svg t="1562220398065" class="icon" viewBox="0 0 1024 1024" version="1.1" xmlns="http://www.w3.org/2000/svg" p-id="9283" xmlns:xlink="http://www.w3.org/1999/xlink" width="200" height="200"><defs><style type="text/css"></style></defs><path d="M427.62832356 192.29119054c-67.12183433-5.63260215-223.07448882 45.29550427-368.70070897 282.68618844 0 0-106.78473644 191.86048997 110.53980603 307.21147532 0 0 181.41670698 107.72350347 437.70007589 32.15276739 0 0 259.92109134-86.01451909 236.33457142-266.49246053 0 0-19.8314518-74.63197055-111.47857157-96.45830063 0 0-28.39769925-3.75506811-12.32131556-32.15276736 0 0 40.60166913-83.19821802-38.72413508-117.22851795 0 0-70.87690243-17.01515071-156.89142154 26.52016521 0 0-56.67805282 32.15276736-29.33646628-37.78536952-1.05611271-1.17345842 12.20396988-91.88181264-67.12183434-98.45318037zM686.49330071 581.64477118c0 98.33583466-126.61618822 206.05933959-281.74742138 206.05933811-182.35547399 0-281.74742139-79.4431499-281.7474214-178.60040589C123.11580362 510.76786875 266.74714255 416.1871007 422.69979705 416.1871007c155.24857887 0 263.79350513 67.12183433 263.79350366 165.45767048z m0 0" fill="#EC6161" p-id="9284"></path><path d="M529.71922635 615.67507113c-4.69383513 71.81566946-65.24430029 127.55495525-145.62621868 130.48860201-97.39706764 3.75506811-161.70260236-40.60166913-150.3200538-128.49372227 8.56624747-71.81566946 70.87690243-132.36613607 150.3200538-132.36613461 80.38191692-0.11734569 151.25881937 43.41797022 145.62621868 130.37125487z m-95.51953506-18.8926833c0-10.4437815-8.56624747-18.89268476-18.89268477-18.89268476s-18.89268476 8.56624747-18.89268329 18.89268476S404.9805707 615.67507113 415.30700652 615.67507113c10.32643583 0.93876702 18.89268476-7.51013474 18.89268477-18.8926833z m-51.04545065 45.41284995c0-25.58139817-23.70386413-46.2342713-50.1066851-42.47920318-26.52016519 3.75506811-51.98421767 23.70386413-51.98421767 49.16791658 0 25.58139817 21.82633154 44.35673724 49.1679166 44.35673726 27.34158655 0.93876702 52.92298471-25.46405247 52.92298617-51.04545066z m0 0M680.86070001 162.95472426c4.69383513-1.87753406 8.56624747-2.81630109 13.2600826-3.7550681 4.69383513-0.93876702 9.50501449-1.87753406 15.13761665-2.81629961-16.07638368 1.87753406-2.81630109 0.93876702 0 0 3.75506811 0 7.6274819-0.93876702 12.32131559-0.93876702h23.7038641c4.69383513 0 8.56624747 0.93876702 13.26008409 0.93876702-12.32131557-1.87753406-3.75506811-0.93876702-0.93876703 0 2.81630109 0.93876702 5.63260215 0.93876702 9.50501449 1.87753405 9.50501449 1.87753406 18.89268476 4.69383513 28.39769925 8.56624746 2.81630109 0.93876702 4.69383513 1.87753406 7.62748191 2.81630109-9.50501449-3.75506811-0.93876702 0 0.93876703 0 5.63260215 2.81630109 11.38254855 5.63260215 17.95391626 9.50501449 4.69383513 2.81630109 10.4437815 6.57136772 15.13761666 9.50501595 2.81630109 1.87753406 4.69383513 3.75506811 7.6274819 5.63260069-7.6274819-5.63260215 0.93876702 0.93876702 1.87753406 1.87753406 10.4437815 8.56624747 19.8314518 17.95391774 29.33646628 28.39769927 0.93876702 0.93876702 7.6274819 9.50501449 0.93876701 0.93876701 1.87753406 1.87753406 2.81630109 4.69383513 4.69383368 6.57136773 2.81630109 4.69383513 5.63260215 9.50501449 8.56624894 13.26008406 2.81630109 4.69383513 4.69383513 9.50501449 6.57136771 14.19884963 3.75506811 8.56624747-2.81630109-8.56624747 0 0 0.93876702 2.81630109 1.87753406 5.63260215 3.75506812 9.50501449 2.81630109 8.56624747 4.69383513 17.95391774 6.57136772 27.45893221 0 1.87753406 0.93876702 4.69383513 0.93876702 6.57136921-1.87753406-12.32131557-0.93876702-4.69383513 0-1.87753405 0.93876702 4.69383513 0.93876702 9.50501449 0.93876702 15.13761665 0 7.6274819 0 16.07638368-0.93876702 23.70386412 0 3.75506811-0.93876702 7.6274819-0.93876702 11.38254853 1.87753406-15.13761666 0 0-0.93876704 2.81630109-1.87753406 10.4437815-4.69383513 19.8314518-7.62748044 29.33646628-1.87753406 5.63260215-8.56624747 19.8314518-0.93876703 2.81630108-8.56624747 18.89268476-5.63260215 41.54043615 14.19884963 52.9229847 17.01515071 9.50501449 44.35673724 5.63260215 52.9229847-14.19884963 23.70386413-51.98421767 28.39769925-114.29487265 12.32131558-170.15150413-28.28035357-100.21336873-126.61618822-168.27397007-227.76832397-176.72287331-28.39769925-1.87753406-59.49435389 0-86.01451909 9.50501597-19.8314518 6.57136772-33.09153438 26.52016519-27.45893222 47.17303685 2.58160969 20.41818026 25.34670679 35.55579692 45.06081286 28.04566216z m0 0" fill="#EC6161" p-id="9285"></path><path d="M700.69215033 270.67822919c2.81630109-0.93876702 4.69383513-0.93876702 7.62748192-1.87753403 8.56624747-1.87753406-4.69383513 0 2.81630106 0 3.75506811 0 8.56624747-0.93876702 12.32131559-0.93876705 15.13761666 0 32.15276736 3.75506811 44.35673723 15.13761666 1.87753406 1.87753406 3.75506811 3.75506811 6.57136773 5.63260069 0 0 5.63260215 6.57136772 2.81630107 3.75506812 1.87753406 1.87753406 2.81630109 4.69383513 3.75506811 6.57136917 0.93876702 1.87753406 1.87753406 2.81630109 1.87753406 4.69383367-0.93876702-1.87753406-0.93876702-1.87753406 0 0.93876704 1.87753406 4.69383513 2.81630109 9.50501449 3.75506663 14.19884961 1.87753406 7.6274819 0-4.69383513 0 1.87753407v19.94879747c0 1.87753406 0 3.75506811-0.93876703 4.69383366 0.93876702-8.56624747 0-0.93876702 0 0-0.93876702 2.81630109-0.93876702 5.63260215-1.87753404 8.56624893-3.75506811 13.26008259 4.69383513 28.39769925 17.95391772 31.21400034 14.19884961 3.75506811 27.45893222-4.69383513 31.21400035-17.95391773 13.26008259-42.47920318 2.81630109-92.70323398-31.21400035-121.92235457-30.27523331-27.45893222-77.56561732-36.84660103-117.22851942-25.58139817-29.10177488 10.4437815-14.90292526 59.49435389 16.19372937 51.04545212z m0 0" fill="#EC6161" p-id="9286"></path></svg>